<svg width="36" height="25" viewBox="0 0 36 25" fill="none" xmlns="http://www.w3.org/2000/svg">
<path fill-rule="evenodd" clip-rule="evenodd" d="M34.9902 3.74121C34.9902 2.46284 33.9538 1.42651 32.6755 1.42651H12.0738C11.1793 1.42651 10.4126 1.80988 9.90141 2.57662L1.46777 12.9276L9.90141 23.2786C10.4126 23.9176 11.1793 24.4287 12.0738 24.4287H32.6755C33.9538 24.4287 34.9902 23.3924 34.9902 22.114C34.9902 15.9898 34.9902 9.86549 34.9902 3.74121Z" stroke="white" stroke-width="1.15734" stroke-linecap="square"/>
<path fill-rule="evenodd" clip-rule="evenodd" d="M24.5712 18.4042C24.7971 18.6302 25.1635 18.6302 25.3895 18.4042C25.6155 18.1782 25.6155 17.8118 25.3895 17.5858L21.3823 13.5786L25.3895 9.57135C25.6155 9.34537 25.6155 8.97897 25.3895 8.75299C25.1635 8.527 24.7972 8.527 24.5712 8.75299L20.5639 12.7602L16.5567 8.75299C16.3307 8.527 15.9643 8.527 15.7383 8.75299C15.5124 8.97897 15.5124 9.34537 15.7383 9.57135L19.7456 13.5786L15.7383 17.5858C15.5124 17.8118 15.5124 18.1782 15.7383 18.4042C15.9643 18.6302 16.3307 18.6302 16.5567 18.4042L20.5639 14.397L24.5712 18.4042Z" fill="white"/>
</svg>
